<svg xmlns="http://www.w3.org/2000/svg" viewBox="0 0 64 64" x="0px" y="0px">
<g>
    <path d="M32,30a2,2,0,0,0-1,3.72V35h2V33.72A2,2,0,0,0,32,30Z"/>
    <path d="M13,49H3a1,1,0,0,0-1,1v7a1,1,0,0,0,1,1H7v2H5v2h6V60H9V58h4a1,1,0,0,0,1-1V50A1,1,0,0,0,13,49Zm-1,7H4V51h8Z"/>
    <path d="M61,49H51a1,1,0,0,0-1,1v7a1,1,0,0,0,1,1h4v2H53v2h6V60H57V58h4a1,1,0,0,0,1-1V50A1,1,0,0,0,61,49Zm-1,7H52V51h8Z"/>
    <path d="M37,49H27a1,1,0,0,0-1,1v7a1,1,0,0,0,1,1h4v2H29v2h6V60H33V58h4a1,1,0,0,0,1-1V50A1,1,0,0,0,37,49Zm-1,7H28V51h8Z"/>
    <path d="M31,41v2H8a1,1,0,0,0-1,1v3H9V45H31v2h2V45H55v2h2V44a1,1,0,0,0-1-1H33V41Z"/>
    <path d="M45,2A17,17,0,0,0,28,18.23,7,7,0,0,0,25,24v2H24a1,1,0,0,0-1,1V38a1,1,0,0,0,1,1H40a1,1,0,0,0,1-1V35.53A17.23,17.23,0,0,0,45,36,17,17,0,0,0,45,2Zm1,26h5.13a34.58,34.58,0,0,1-2,5.4A15.13,15.13,0,0,1,46,34Zm0-2V20h6.31a34.71,34.71,0,0,1-.7,6Zm-6,0H39V24a7,7,0,0,0-1.26-4H44v6Zm6-16V4.05a15.13,15.13,0,0,1,3.17.55,34.58,34.58,0,0,1,2,5.4Zm5.61,2a34.71,34.71,0,0,1,.7,6H46V12ZM44,10H38.88a34.45,34.45,0,0,1,1.95-5.4A15.13,15.13,0,0,1,44,4.05Zm0,2v6H37.7a33.77,33.77,0,0,1,.71-6Zm10.31,8H60a14.86,14.86,0,0,1-1.69,6H53.64A36.74,36.74,0,0,0,54.31,20Zm0-2a36.74,36.74,0,0,0-.67-6h4.62A14.86,14.86,0,0,1,60,18ZM57,10H53.19a38.1,38.1,0,0,0-1.4-4.36A15.05,15.05,0,0,1,57,10ZM38.22,5.64A36.88,36.88,0,0,0,36.82,10H33A15,15,0,0,1,38.22,5.64ZM31.74,12h4.63a36.38,36.38,0,0,0-.67,6.07A7,7,0,0,0,32,17a6.9,6.9,0,0,0-1.89.27A14.94,14.94,0,0,1,31.74,12ZM27,24a5,5,0,0,1,10,0v2H35V24a3,3,0,0,0-6,0v2H27Zm6,2H31V24a1,1,0,0,1,2,0Zm6,11H25V28H39Zm2-9h3v6a15.18,15.18,0,0,1-3-.51Zm10.79,4.36A38.1,38.1,0,0,0,53.19,28H57A15.05,15.05,0,0,1,51.79,32.36Z"/>
</g>
</svg>